<svg height="256" preserveAspectRatio="xMidYMid" viewBox="0 0 256 256" width="256" xmlns="http://www.w3.org/2000/svg"><rect fill="#56b3b4" height="12.190476" rx="5" width="24.380952" x="182.857143" y="48.761905"/><rect fill="#ea5e5e" height="12.190476" rx="5" width="73.142857" y="243.809524"/><rect fill="#bf85bf" height="12.190476" rx="5" width="48.761905" x="146.285714" y="146.285714"/><rect fill="#ea5e5e" height="12.190476" rx="5" width="60.952381" x="73.142857" y="146.285714"/><rect fill="#56b3b4" height="12.190476" rx="5" width="60.952381" y="146.285714"/><rect fill="#bf85bf" height="12.190476" rx="5" width="73.142857" y="195.047619"/><rect fill="#bf85bf" height="12.190476" rx="5" width="73.142857" y="97.52381"/><rect fill="#f7ba3e" height="12.190476" rx="5" width="134.095238" x="60.952381" y="24.380952"/><rect fill="#ea5e5e" height="12.190476" rx="5" width="48.761905" y="24.380952"/><rect fill="#f7ba3e" height="12.190476" rx="5" width="24.380952" x="48.761905" y="219.428571"/><rect fill="#56b3b4" height="12.190476" rx="5" width="24.380952" x="48.761905" y="73.142857"/><rect fill="#56b3b4" height="12.190476" rx="5" width="36.571429" y="219.428571"/><rect fill="#f7ba3e" height="12.190476" rx="5" width="36.571429" y="73.142857"/><rect fill="#d0d4d8" height="12.190476" opacity=".5" rx="5" width="24.380952" x="158.47619" y="219.428571"/><rect fill="#d0d4d8" height="12.190476" opacity=".5" rx="5" width="60.952381" x="85.333333" y="219.428571"/><rect fill="#d0d4d8" height="12.190476" opacity=".5" rx="5" width="60.952381" x="195.047619" y="219.428571"/><rect fill="#56b3b4" height="12.190476" rx="5" width="109.714286" x="97.52381" y="121.904762"/><rect fill="#f7ba3e" height="12.190476" rx="5" width="48.761905" x="36.571429" y="121.904762"/><rect fill="#ea5e5e" height="12.190476" rx="5" width="24.380952" y="121.904762"/><rect fill="#bf85bf" height="12.190476" rx="5" width="60.952381" x="109.714286" y="48.761905"/><rect fill="#56b3b4" height="12.190476" rx="5" width="97.52381" y="48.761905"/><rect fill="#f7ba3e" height="12.190476" rx="5" width="121.904762" x="36.571429" y="170.666667"/><rect fill="#bf85bf" height="12.190476" rx="5" width="24.380952" y="170.666667"/><rect fill="#ea5e5e" height="12.190476" rx="5" width="73.142857" x="146.285714" y="73.142857"/><rect fill="#f7ba3e" height="12.190476" rx="5" width="73.142857" x="146.285714" y="97.52381"/><rect fill="#56b3b4" height="12.190476" rx="5" width="158.47619"/><g fill="#d0d4d8"><rect height="12.190476" opacity=".5" rx="5" width="85.333333" x="170.666667"/><rect height="12.190476" opacity=".5" rx="5" width="36.571429" x="170.666667" y="170.666667"/><rect height="12.190476" opacity=".5" rx="5" width="36.571429" x="219.428571" y="170.666667"/><rect height="12.190476" opacity=".5" rx="5" width="48.761905" x="207.238095" y="146.285714"/><rect height="12.190476" opacity=".5" rx="5" width="48.761905" x="207.238095" y="24.380952"/><rect height="12.190476" opacity=".5" rx="5" width="36.571429" x="219.428571" y="121.904762"/><rect height="12.190476" opacity=".5" rx="5" width="36.571429" x="219.428571" y="48.761905"/><rect height="12.190476" opacity=".5" rx="5" width="24.380952" x="231.619048" y="73.142857"/><rect height="12.190476" opacity=".5" rx="5" width="24.380952" x="231.619048" y="97.52381"/><rect height="12.190476" opacity=".5" rx="5" width="121.904762" x="134.095238" y="195.047619"/><rect height="12.190476" opacity=".5" rx="5" width="36.571429" x="85.333333" y="195.047619"/><rect height="12.190476" opacity=".5" rx="5" width="73.142857" x="182.857143" y="243.809524"/><rect height="12.190476" opacity=".5" rx="5" width="85.333333" x="85.333333" y="243.809524"/><rect height="12.190476" opacity=".5" rx="5" width="48.761905" x="85.333333" y="73.142857"/><rect height="12.190476" opacity=".5" rx="5" width="48.761905" x="85.333333" y="97.52381"/></g></svg>